<svg xmlns="http://www.w3.org/2000/svg" version="1.1" xmlns:xlink="http://www.w3.org/1999/xlink" xmlns:svgjs="http://svgjs.com/svgjs" width="433" height="433"><svg xmlns="http://www.w3.org/2000/svg" xmlns:xlink="http://www.w3.org/1999/xlink" version="1.1" width="433" height="433" viewBox="0 0 433 433" xml:space="preserve">
<desc>Created with Fabric.js 3.6.3</desc>
<defs>
</defs>
<g transform="matrix(4.42 0 0 4.42 459.18 216.32)">
<g style="">
		<g transform="matrix(1 0 0 1 0 0)">
<rect style="stroke: none; stroke-width: 1; stroke-dasharray: none; stroke-linecap: butt; stroke-dashoffset: 0; stroke-linejoin: miter; stroke-miterlimit: 4; fill: rgb(47,42,37); fill-rule: nonzero; opacity: 1;" x="-196.5" y="-94.5" rx="0" ry="0" width="393" height="189"></rect>
</g>
		<g transform="matrix(1 0 0 1 -54.92 0)">
<path style="stroke: none; stroke-width: 1; stroke-dasharray: none; stroke-linecap: butt; stroke-dashoffset: 0; stroke-linejoin: miter; stroke-miterlimit: 4; fill: rgb(252,249,243); fill-rule: nonzero; opacity: 1;" transform=" translate(-141.58, -94.5)" d="M 176.311 62.5772 C 176.089 62.7115 175.867 62.8466 175.646 62.9826 C 172.775 64.7458 170.019 66.695 167.262 68.6446 C 165.819 69.6648 164.376 70.685 162.917 71.6788 C 161.706 72.5034 160.467 73.2855 159.218 74.0733 C 158.638 74.4398 158.055 74.8075 157.473 75.1813 C 155.022 70.3369 150.046 70.4927 145.302 72.0904 C 141.192 73.9507 144.871 76.8457 148.211 78.7572 C 149.786 79.6584 149.844 80.9157 148.936 82.6336 C 148.426 83.599 148.218 84.7212 148.009 85.8485 C 147.892 86.4828 147.774 87.1188 147.602 87.7293 C 147.512 88.0471 147.426 88.3676 147.339 88.6888 C 146.966 90.0726 146.59 91.4691 145.936 92.7116 C 145.091 94.3205 144.088 94.5385 142.057 93.4015 C 138.935 91.6546 135.605 89.4806 133.348 86.9038 C 132.663 86.1205 131.039 84.7008 130.196 85.3995 C 129.417 86.047 130.101 88.2578 130.462 89.4249 C 130.491 89.5172 130.517 89.6029 130.541 89.6809 C 131.179 91.7867 131.933 93.8557 132.687 95.9256 C 133.12 97.1125 133.553 98.2996 133.964 99.4941 C 134.858 102.095 134.366 102.612 131.573 102.269 C 123.611 101.292 117.639 97.5226 114.085 90.1326 C 112.575 87.4289 113.082 91.7548 113.082 91.7548 C 113.883 97.9498 116.95 102.536 121.442 106.067 C 123.624 107.783 131.079 112.518 133.719 113.86 C 134.76 120.565 139.048 125.458 144.591 124.539 C 151.957 123.315 157.379 118.282 162.159 112.765 C 166.938 107.249 170.955 103.399 176.84 102.937 C 182.304 102.507 185.651 105.432 187.153 107.52 C 181.522 126.864 163.662 141 142.5 141 C 116.819 141 96 120.181 96 94.5 C 96 68.8188 116.819 48 142.5 48 C 155.821 48 167.834 53.6013 176.311 62.5772 Z" stroke-linecap="round"></path>
</g>
		<g transform="matrix(1 0 0 1 10.6 -25.8)">
<path style="stroke: none; stroke-width: 1; stroke-dasharray: none; stroke-linecap: butt; stroke-dashoffset: 0; stroke-linejoin: miter; stroke-miterlimit: 4; fill: rgb(252,249,243); fill-rule: nonzero; opacity: 1;" transform=" translate(-207.1, -68.7)" d="M 198.794 78 H 203.474 V 66.326 L 210.26 78 H 215.408 V 59.41 H 210.754 V 69.888 L 204.8 59.41 H 198.794 V 78 Z" stroke-linecap="round"></path>
</g>
		<g transform="matrix(1 0 0 1 29.9 -25.8)">
<path style="stroke: none; stroke-width: 1; stroke-dasharray: none; stroke-linecap: butt; stroke-dashoffset: 0; stroke-linejoin: miter; stroke-miterlimit: 4; fill: rgb(252,249,243); fill-rule: nonzero; opacity: 1;" transform=" translate(-226.4, -68.7)" d="M 217.029 78 H 221.995 L 222.983 74.542 H 229.145 L 230.133 78 H 235.775 L 229.873 59.41 H 222.983 L 217.029 78 Z M 226.077 63.726 L 228.105 70.876 H 224.023 L 226.077 63.726 Z" stroke-linecap="round"></path>
</g>
		<g transform="matrix(1 0 0 1 51.33 -25.8)">
<path style="stroke: none; stroke-width: 1; stroke-dasharray: none; stroke-linecap: butt; stroke-dashoffset: 0; stroke-linejoin: miter; stroke-miterlimit: 4; fill: rgb(252,249,243); fill-rule: nonzero; opacity: 1;" transform=" translate(-247.83, -68.7)" d="M 237.389 78 H 242.147 V 66.43 L 246.645 78 H 248.413 L 252.963 66.43 V 78 H 258.267 V 59.41 H 251.455 L 247.893 69.316 L 244.331 59.41 H 237.389 V 78 Z" stroke-linecap="round"></path>
</g>
		<g transform="matrix(1 0 0 1 67.67 -25.8)">
<path style="stroke: none; stroke-width: 1; stroke-dasharray: none; stroke-linecap: butt; stroke-dashoffset: 0; stroke-linejoin: miter; stroke-miterlimit: 4; fill: rgb(252,249,243); fill-rule: nonzero; opacity: 1;" transform=" translate(-264.17, -68.7)" d="M 261.475 78 H 266.857 V 59.41 H 261.475 V 78 Z" stroke-linecap="round"></path>
</g>
		<g transform="matrix(1 0 0 1 81.06 -25.8)">
<path style="stroke: none; stroke-width: 1; stroke-dasharray: none; stroke-linecap: butt; stroke-dashoffset: 0; stroke-linejoin: miter; stroke-miterlimit: 4; fill: rgb(252,249,243); fill-rule: nonzero; opacity: 1;" transform=" translate(-277.56, -68.7)" d="M 269.991 78 H 278.363 C 282.965 78 285.123 76.154 285.123 72.826 V 72.722 C 285.123 70.148 283.693 68.77 281.405 68.38 C 283.485 67.834 284.551 66.456 284.551 64.376 V 64.272 C 284.551 61.386 282.679 59.41 278.285 59.41 H 269.991 V 78 Z M 275.191 74.438 V 70.044 H 277.245 C 279.117 70.044 279.871 70.772 279.871 72.176 V 72.28 C 279.871 73.658 279.091 74.438 277.401 74.438 H 275.191 Z M 275.191 66.794 V 62.946 H 277.219 C 278.831 62.946 279.507 63.518 279.507 64.792 V 64.896 C 279.507 66.222 278.883 66.794 277.219 66.794 H 275.191 Z" stroke-linecap="round"></path>
</g>
		<g transform="matrix(1 0 0 1 8.92 -1.8)">
<path style="stroke: none; stroke-width: 1; stroke-dasharray: none; stroke-linecap: butt; stroke-dashoffset: 0; stroke-linejoin: miter; stroke-miterlimit: 4; fill: rgb(252,249,243); fill-rule: nonzero; opacity: 1;" transform=" translate(-205.42, -92.7)" d="M 198.794 102 H 212.054 V 97.892 H 204.098 V 94.512 H 210.104 V 90.716 H 204.098 V 87.518 H 211.638 V 83.41 H 198.794 V 102 Z" stroke-linecap="round"></path>
</g>
		<g transform="matrix(1 0 0 1 26 -1.8)">
<path style="stroke: none; stroke-width: 1; stroke-dasharray: none; stroke-linecap: butt; stroke-dashoffset: 0; stroke-linejoin: miter; stroke-miterlimit: 4; fill: rgb(252,249,243); fill-rule: nonzero; opacity: 1;" transform=" translate(-222.5, -92.7)" d="M 214.194 102 H 218.874 V 90.326 L 225.66 102 H 230.808 V 83.41 H 226.154 V 93.888 L 220.2 83.41 H 214.194 V 102 Z" stroke-linecap="round"></path>
</g>
		<g transform="matrix(1 0 0 1 45.06 -1.8)">
<path style="stroke: none; stroke-width: 1; stroke-dasharray: none; stroke-linecap: butt; stroke-dashoffset: 0; stroke-linejoin: miter; stroke-miterlimit: 4; fill: rgb(252,249,243); fill-rule: nonzero; opacity: 1;" transform=" translate(-241.56, -92.7)" d="M 238.565 102 H 244.623 L 250.707 83.41 H 245.715 L 241.919 96.462 L 238.149 83.41 H 232.403 L 238.565 102 Z" stroke-linecap="round"></path>
</g>
		<g transform="matrix(1 0 0 1 58.58 -1.8)">
<path style="stroke: none; stroke-width: 1; stroke-dasharray: none; stroke-linecap: butt; stroke-dashoffset: 0; stroke-linejoin: miter; stroke-miterlimit: 4; fill: rgb(252,249,243); fill-rule: nonzero; opacity: 1;" transform=" translate(-255.08, -92.7)" d="M 252.385 102 H 257.767 V 83.41 H 252.385 V 102 Z" stroke-linecap="round"></path>
</g>
		<g transform="matrix(1 0 0 1 72.37 -1.8)">
<path style="stroke: none; stroke-width: 1; stroke-dasharray: none; stroke-linecap: butt; stroke-dashoffset: 0; stroke-linejoin: miter; stroke-miterlimit: 4; fill: rgb(252,249,243); fill-rule: nonzero; opacity: 1;" transform=" translate(-268.87, -92.7)" d="M 260.901 102 H 266.205 V 95.344 H 267.453 L 271.223 102 H 276.839 L 272.393 94.304 C 274.343 93.55 275.747 92.068 275.747 89.416 V 89.312 C 275.747 85.386 273.043 83.41 268.181 83.41 H 260.901 V 102 Z M 266.205 91.886 V 87.414 H 267.947 C 269.663 87.414 270.599 88.012 270.599 89.52 V 89.624 C 270.599 91.132 269.715 91.886 267.921 91.886 H 266.205 Z" stroke-linecap="round"></path>
</g>
		<g transform="matrix(1 0 0 1 90.61 -1.77)">
<path style="stroke: none; stroke-width: 1; stroke-dasharray: none; stroke-linecap: butt; stroke-dashoffset: 0; stroke-linejoin: miter; stroke-miterlimit: 4; fill: rgb(252,249,243); fill-rule: nonzero; opacity: 1;" transform=" translate(-287.11, -92.73)" d="M 287.122 98.126 C 284.548 98.126 282.832 96.176 282.832 92.796 V 92.588 C 282.832 89.208 284.47 87.31 287.096 87.31 C 289.722 87.31 291.386 89.26 291.386 92.562 V 92.77 C 291.386 96.098 289.748 98.126 287.122 98.126 Z M 287.018 102.312 C 293.024 102.312 296.95 98.412 296.95 92.692 V 92.484 C 296.95 86.712 292.764 83.15 287.096 83.15 C 281.532 83.15 277.268 86.946 277.268 92.614 V 92.822 C 277.268 98.412 281.012 102.312 287.018 102.312 Z" stroke-linecap="round"></path>
</g>
		<g transform="matrix(1 0 0 1 8.53 22.2)">
<path style="stroke: none; stroke-width: 1; stroke-dasharray: none; stroke-linecap: butt; stroke-dashoffset: 0; stroke-linejoin: miter; stroke-miterlimit: 4; fill: rgb(252,249,243); fill-rule: nonzero; opacity: 1;" transform=" translate(-205.03, -116.7)" d="M 202.356 126 H 207.712 V 111.518 H 212.522 V 107.41 H 197.546 V 111.518 H 202.356 V 126 Z" stroke-linecap="round"></path>
</g>
		<g transform="matrix(1 0 0 1 26.04 22.23)">
<path style="stroke: none; stroke-width: 1; stroke-dasharray: none; stroke-linecap: butt; stroke-dashoffset: 0; stroke-linejoin: miter; stroke-miterlimit: 4; fill: rgb(252,249,243); fill-rule: nonzero; opacity: 1;" transform=" translate(-222.54, -116.73)" d="M 222.552 122.126 C 219.978 122.126 218.262 120.176 218.262 116.796 V 116.588 C 218.262 113.208 219.9 111.31 222.526 111.31 C 225.152 111.31 226.816 113.26 226.816 116.562 V 116.77 C 226.816 120.098 225.178 122.126 222.552 122.126 Z M 222.448 126.312 C 228.454 126.312 232.38 122.412 232.38 116.692 V 116.484 C 232.38 110.712 228.194 107.15 222.526 107.15 C 216.962 107.15 212.698 110.946 212.698 116.614 V 116.822 C 212.698 122.412 216.442 126.312 222.448 126.312 Z" stroke-linecap="round"></path>
</g>
		<g transform="matrix(1 0 0 1 46.11 22.36)">
<path style="stroke: none; stroke-width: 1; stroke-dasharray: none; stroke-linecap: butt; stroke-dashoffset: 0; stroke-linejoin: miter; stroke-miterlimit: 4; fill: rgb(252,249,243); fill-rule: nonzero; opacity: 1;" transform=" translate(-242.61, -116.86)" d="M 242.581 126.312 C 247.703 126.312 250.875 123.79 250.875 118.382 V 107.41 H 245.493 V 118.148 C 245.493 120.93 244.791 122.126 242.581 122.126 C 240.319 122.126 239.669 120.852 239.669 118.226 V 107.41 H 234.339 V 118.46 C 234.339 123.66 237.329 126.312 242.581 126.312 Z" stroke-linecap="round"></path>
</g>
		<g transform="matrix(1 0 0 1 65.27 22.2)">
<path style="stroke: none; stroke-width: 1; stroke-dasharray: none; stroke-linecap: butt; stroke-dashoffset: 0; stroke-linejoin: miter; stroke-miterlimit: 4; fill: rgb(252,249,243); fill-rule: nonzero; opacity: 1;" transform=" translate(-261.77, -116.7)" d="M 253.804 126 H 259.108 V 119.344 H 260.356 L 264.126 126 H 269.742 L 265.296 118.304 C 267.246 117.55 268.65 116.068 268.65 113.416 V 113.312 C 268.65 109.386 265.946 107.41 261.084 107.41 H 253.804 V 126 Z M 259.108 115.886 V 111.414 H 260.85 C 262.566 111.414 263.502 112.012 263.502 113.52 V 113.624 C 263.502 115.132 262.618 115.886 260.824 115.886 H 259.108 Z" stroke-linecap="round"></path>
</g>
		<g transform="matrix(1 0 0 1 81.21 22.23)">
<path style="stroke: none; stroke-width: 1; stroke-dasharray: none; stroke-linecap: butt; stroke-dashoffset: 0; stroke-linejoin: miter; stroke-miterlimit: 4; fill: rgb(252,249,243); fill-rule: nonzero; opacity: 1;" transform=" translate(-277.71, -116.73)" d="M 277.971 126.312 C 282.755 126.312 285.459 123.53 285.459 120.124 C 285.459 116.094 283.041 114.872 278.335 114.352 C 276.021 114.04 275.449 113.572 275.449 112.532 C 275.449 111.596 276.177 110.946 277.607 110.946 C 279.063 110.946 279.817 111.622 279.999 112.948 H 284.939 C 284.601 109.022 282.079 107.15 277.607 107.15 C 273.161 107.15 270.405 109.594 270.405 112.948 C 270.405 116.692 272.173 118.252 277.425 118.876 C 279.661 119.214 280.363 119.526 280.363 120.67 C 280.363 121.762 279.505 122.516 277.971 122.516 C 275.761 122.516 275.163 121.424 275.033 120.098 H 269.963 C 270.119 124.128 272.771 126.312 277.971 126.312 Z" stroke-linecap="round"></path>
</g>
</g>
</g>
<g transform="matrix(4.27 0 0 4.27 449.65 216.85)">
<g style="">
		<g transform="matrix(1 0 0 1 0 0)">
<rect style="stroke: none; stroke-width: 1; stroke-dasharray: none; stroke-linecap: butt; stroke-dashoffset: 0; stroke-linejoin: miter; stroke-miterlimit: 4; fill: rgb(252,249,243); fill-rule: nonzero; opacity: 1;" x="-196.5" y="-94.5" rx="0" ry="0" width="393" height="189"></rect>
</g>
		<g transform="matrix(1 0 0 1 -54.92 0)">
<path style="stroke: none; stroke-width: 1; stroke-dasharray: none; stroke-linecap: butt; stroke-dashoffset: 0; stroke-linejoin: miter; stroke-miterlimit: 4; fill: rgb(47,42,37); fill-rule: nonzero; opacity: 1;" transform=" translate(-141.58, -94.5)" d="M 176.311 62.5772 C 176.089 62.7115 175.867 62.8466 175.646 62.9826 C 172.775 64.7458 170.019 66.695 167.262 68.6446 C 165.819 69.6648 164.376 70.685 162.917 71.6788 C 161.706 72.5034 160.467 73.2855 159.218 74.0733 C 158.638 74.4398 158.055 74.8075 157.473 75.1813 C 155.022 70.3369 150.046 70.4927 145.302 72.0904 C 141.192 73.9507 144.871 76.8457 148.211 78.7572 C 149.786 79.6584 149.844 80.9157 148.936 82.6336 C 148.426 83.599 148.218 84.7212 148.009 85.8485 C 147.892 86.4828 147.774 87.1188 147.602 87.7293 C 147.512 88.0471 147.426 88.3676 147.339 88.6888 C 146.966 90.0726 146.59 91.4691 145.936 92.7116 C 145.091 94.3205 144.088 94.5385 142.057 93.4015 C 138.935 91.6546 135.605 89.4806 133.348 86.9038 C 132.663 86.1205 131.039 84.7008 130.196 85.3995 C 129.417 86.047 130.101 88.2578 130.462 89.4249 C 130.491 89.5172 130.517 89.6029 130.541 89.6809 C 131.179 91.7867 131.933 93.8557 132.687 95.9256 C 133.12 97.1125 133.553 98.2996 133.964 99.4941 C 134.858 102.095 134.366 102.612 131.573 102.269 C 123.611 101.292 117.639 97.5226 114.085 90.1326 C 112.575 87.4289 113.082 91.7548 113.082 91.7548 C 113.883 97.9498 116.95 102.536 121.442 106.067 C 123.624 107.783 131.079 112.518 133.719 113.86 C 134.76 120.565 139.048 125.458 144.591 124.539 C 151.957 123.315 157.379 118.282 162.159 112.765 C 166.938 107.249 170.955 103.399 176.84 102.937 C 182.304 102.507 185.651 105.432 187.153 107.52 C 181.522 126.864 163.662 141 142.5 141 C 116.819 141 96 120.181 96 94.5 C 96 68.8188 116.819 48 142.5 48 C 155.821 48 167.834 53.6013 176.311 62.5772 Z" stroke-linecap="round"></path>
</g>
		<g transform="matrix(1 0 0 1 10.6 -25.8)">
<path style="stroke: none; stroke-width: 1; stroke-dasharray: none; stroke-linecap: butt; stroke-dashoffset: 0; stroke-linejoin: miter; stroke-miterlimit: 4; fill: rgb(47,42,37); fill-rule: nonzero; opacity: 1;" transform=" translate(-207.1, -68.7)" d="M 198.794 78 H 203.474 V 66.326 L 210.26 78 H 215.408 V 59.41 H 210.754 V 69.888 L 204.8 59.41 H 198.794 V 78 Z" stroke-linecap="round"></path>
</g>
		<g transform="matrix(1 0 0 1 29.9 -25.8)">
<path style="stroke: none; stroke-width: 1; stroke-dasharray: none; stroke-linecap: butt; stroke-dashoffset: 0; stroke-linejoin: miter; stroke-miterlimit: 4; fill: rgb(47,42,37); fill-rule: nonzero; opacity: 1;" transform=" translate(-226.4, -68.7)" d="M 217.029 78 H 221.995 L 222.983 74.542 H 229.145 L 230.133 78 H 235.775 L 229.873 59.41 H 222.983 L 217.029 78 Z M 226.077 63.726 L 228.105 70.876 H 224.023 L 226.077 63.726 Z" stroke-linecap="round"></path>
</g>
		<g transform="matrix(1 0 0 1 51.33 -25.8)">
<path style="stroke: none; stroke-width: 1; stroke-dasharray: none; stroke-linecap: butt; stroke-dashoffset: 0; stroke-linejoin: miter; stroke-miterlimit: 4; fill: rgb(47,42,37); fill-rule: nonzero; opacity: 1;" transform=" translate(-247.83, -68.7)" d="M 237.389 78 H 242.147 V 66.43 L 246.645 78 H 248.413 L 252.963 66.43 V 78 H 258.267 V 59.41 H 251.455 L 247.893 69.316 L 244.331 59.41 H 237.389 V 78 Z" stroke-linecap="round"></path>
</g>
		<g transform="matrix(1 0 0 1 67.67 -25.8)">
<path style="stroke: none; stroke-width: 1; stroke-dasharray: none; stroke-linecap: butt; stroke-dashoffset: 0; stroke-linejoin: miter; stroke-miterlimit: 4; fill: rgb(47,42,37); fill-rule: nonzero; opacity: 1;" transform=" translate(-264.17, -68.7)" d="M 261.475 78 H 266.857 V 59.41 H 261.475 V 78 Z" stroke-linecap="round"></path>
</g>
		<g transform="matrix(1 0 0 1 81.06 -25.8)">
<path style="stroke: none; stroke-width: 1; stroke-dasharray: none; stroke-linecap: butt; stroke-dashoffset: 0; stroke-linejoin: miter; stroke-miterlimit: 4; fill: rgb(47,42,37); fill-rule: nonzero; opacity: 1;" transform=" translate(-277.56, -68.7)" d="M 269.991 78 H 278.363 C 282.965 78 285.123 76.154 285.123 72.826 V 72.722 C 285.123 70.148 283.693 68.77 281.405 68.38 C 283.485 67.834 284.551 66.456 284.551 64.376 V 64.272 C 284.551 61.386 282.679 59.41 278.285 59.41 H 269.991 V 78 Z M 275.191 74.438 V 70.044 H 277.245 C 279.117 70.044 279.871 70.772 279.871 72.176 V 72.28 C 279.871 73.658 279.091 74.438 277.401 74.438 H 275.191 Z M 275.191 66.794 V 62.946 H 277.219 C 278.831 62.946 279.507 63.518 279.507 64.792 V 64.896 C 279.507 66.222 278.883 66.794 277.219 66.794 H 275.191 Z" stroke-linecap="round"></path>
</g>
		<g transform="matrix(1 0 0 1 8.92 -1.8)">
<path style="stroke: none; stroke-width: 1; stroke-dasharray: none; stroke-linecap: butt; stroke-dashoffset: 0; stroke-linejoin: miter; stroke-miterlimit: 4; fill: rgb(47,42,37); fill-rule: nonzero; opacity: 1;" transform=" translate(-205.42, -92.7)" d="M 198.794 102 H 212.054 V 97.892 H 204.098 V 94.512 H 210.104 V 90.716 H 204.098 V 87.518 H 211.638 V 83.41 H 198.794 V 102 Z" stroke-linecap="round"></path>
</g>
		<g transform="matrix(1 0 0 1 26 -1.8)">
<path style="stroke: none; stroke-width: 1; stroke-dasharray: none; stroke-linecap: butt; stroke-dashoffset: 0; stroke-linejoin: miter; stroke-miterlimit: 4; fill: rgb(47,42,37); fill-rule: nonzero; opacity: 1;" transform=" translate(-222.5, -92.7)" d="M 214.194 102 H 218.874 V 90.326 L 225.66 102 H 230.808 V 83.41 H 226.154 V 93.888 L 220.2 83.41 H 214.194 V 102 Z" stroke-linecap="round"></path>
</g>
		<g transform="matrix(1 0 0 1 45.06 -1.8)">
<path style="stroke: none; stroke-width: 1; stroke-dasharray: none; stroke-linecap: butt; stroke-dashoffset: 0; stroke-linejoin: miter; stroke-miterlimit: 4; fill: rgb(47,42,37); fill-rule: nonzero; opacity: 1;" transform=" translate(-241.56, -92.7)" d="M 238.565 102 H 244.623 L 250.707 83.41 H 245.715 L 241.919 96.462 L 238.149 83.41 H 232.403 L 238.565 102 Z" stroke-linecap="round"></path>
</g>
		<g transform="matrix(1 0 0 1 58.58 -1.8)">
<path style="stroke: none; stroke-width: 1; stroke-dasharray: none; stroke-linecap: butt; stroke-dashoffset: 0; stroke-linejoin: miter; stroke-miterlimit: 4; fill: rgb(47,42,37); fill-rule: nonzero; opacity: 1;" transform=" translate(-255.08, -92.7)" d="M 252.385 102 H 257.767 V 83.41 H 252.385 V 102 Z" stroke-linecap="round"></path>
</g>
		<g transform="matrix(1 0 0 1 72.37 -1.8)">
<path style="stroke: none; stroke-width: 1; stroke-dasharray: none; stroke-linecap: butt; stroke-dashoffset: 0; stroke-linejoin: miter; stroke-miterlimit: 4; fill: rgb(47,42,37); fill-rule: nonzero; opacity: 1;" transform=" translate(-268.87, -92.7)" d="M 260.901 102 H 266.205 V 95.344 H 267.453 L 271.223 102 H 276.839 L 272.393 94.304 C 274.343 93.55 275.747 92.068 275.747 89.416 V 89.312 C 275.747 85.386 273.043 83.41 268.181 83.41 H 260.901 V 102 Z M 266.205 91.886 V 87.414 H 267.947 C 269.663 87.414 270.599 88.012 270.599 89.52 V 89.624 C 270.599 91.132 269.715 91.886 267.921 91.886 H 266.205 Z" stroke-linecap="round"></path>
</g>
		<g transform="matrix(1 0 0 1 90.61 -1.77)">
<path style="stroke: none; stroke-width: 1; stroke-dasharray: none; stroke-linecap: butt; stroke-dashoffset: 0; stroke-linejoin: miter; stroke-miterlimit: 4; fill: rgb(47,42,37); fill-rule: nonzero; opacity: 1;" transform=" translate(-287.11, -92.73)" d="M 287.122 98.126 C 284.548 98.126 282.832 96.176 282.832 92.796 V 92.588 C 282.832 89.208 284.47 87.31 287.096 87.31 C 289.722 87.31 291.386 89.26 291.386 92.562 V 92.77 C 291.386 96.098 289.748 98.126 287.122 98.126 Z M 287.018 102.312 C 293.024 102.312 296.95 98.412 296.95 92.692 V 92.484 C 296.95 86.712 292.764 83.15 287.096 83.15 C 281.532 83.15 277.268 86.946 277.268 92.614 V 92.822 C 277.268 98.412 281.012 102.312 287.018 102.312 Z" stroke-linecap="round"></path>
</g>
		<g transform="matrix(1 0 0 1 8.53 22.2)">
<path style="stroke: none; stroke-width: 1; stroke-dasharray: none; stroke-linecap: butt; stroke-dashoffset: 0; stroke-linejoin: miter; stroke-miterlimit: 4; fill: rgb(47,42,37); fill-rule: nonzero; opacity: 1;" transform=" translate(-205.03, -116.7)" d="M 202.356 126 H 207.712 V 111.518 H 212.522 V 107.41 H 197.546 V 111.518 H 202.356 V 126 Z" stroke-linecap="round"></path>
</g>
		<g transform="matrix(1 0 0 1 26.04 22.23)">
<path style="stroke: none; stroke-width: 1; stroke-dasharray: none; stroke-linecap: butt; stroke-dashoffset: 0; stroke-linejoin: miter; stroke-miterlimit: 4; fill: rgb(47,42,37); fill-rule: nonzero; opacity: 1;" transform=" translate(-222.54, -116.73)" d="M 222.552 122.126 C 219.978 122.126 218.262 120.176 218.262 116.796 V 116.588 C 218.262 113.208 219.9 111.31 222.526 111.31 C 225.152 111.31 226.816 113.26 226.816 116.562 V 116.77 C 226.816 120.098 225.178 122.126 222.552 122.126 Z M 222.448 126.312 C 228.454 126.312 232.38 122.412 232.38 116.692 V 116.484 C 232.38 110.712 228.194 107.15 222.526 107.15 C 216.962 107.15 212.698 110.946 212.698 116.614 V 116.822 C 212.698 122.412 216.442 126.312 222.448 126.312 Z" stroke-linecap="round"></path>
</g>
		<g transform="matrix(1 0 0 1 46.11 22.36)">
<path style="stroke: none; stroke-width: 1; stroke-dasharray: none; stroke-linecap: butt; stroke-dashoffset: 0; stroke-linejoin: miter; stroke-miterlimit: 4; fill: rgb(47,42,37); fill-rule: nonzero; opacity: 1;" transform=" translate(-242.61, -116.86)" d="M 242.581 126.312 C 247.703 126.312 250.875 123.79 250.875 118.382 V 107.41 H 245.493 V 118.148 C 245.493 120.93 244.791 122.126 242.581 122.126 C 240.319 122.126 239.669 120.852 239.669 118.226 V 107.41 H 234.339 V 118.46 C 234.339 123.66 237.329 126.312 242.581 126.312 Z" stroke-linecap="round"></path>
</g>
		<g transform="matrix(1 0 0 1 65.27 22.2)">
<path style="stroke: none; stroke-width: 1; stroke-dasharray: none; stroke-linecap: butt; stroke-dashoffset: 0; stroke-linejoin: miter; stroke-miterlimit: 4; fill: rgb(47,42,37); fill-rule: nonzero; opacity: 1;" transform=" translate(-261.77, -116.7)" d="M 253.804 126 H 259.108 V 119.344 H 260.356 L 264.126 126 H 269.742 L 265.296 118.304 C 267.246 117.55 268.65 116.068 268.65 113.416 V 113.312 C 268.65 109.386 265.946 107.41 261.084 107.41 H 253.804 V 126 Z M 259.108 115.886 V 111.414 H 260.85 C 262.566 111.414 263.502 112.012 263.502 113.52 V 113.624 C 263.502 115.132 262.618 115.886 260.824 115.886 H 259.108 Z" stroke-linecap="round"></path>
</g>
		<g transform="matrix(1 0 0 1 81.21 22.23)">
<path style="stroke: none; stroke-width: 1; stroke-dasharray: none; stroke-linecap: butt; stroke-dashoffset: 0; stroke-linejoin: miter; stroke-miterlimit: 4; fill: rgb(47,42,37); fill-rule: nonzero; opacity: 1;" transform=" translate(-277.71, -116.73)" d="M 277.971 126.312 C 282.755 126.312 285.459 123.53 285.459 120.124 C 285.459 116.094 283.041 114.872 278.335 114.352 C 276.021 114.04 275.449 113.572 275.449 112.532 C 275.449 111.596 276.177 110.946 277.607 110.946 C 279.063 110.946 279.817 111.622 279.999 112.948 H 284.939 C 284.601 109.022 282.079 107.15 277.607 107.15 C 273.161 107.15 270.405 109.594 270.405 112.948 C 270.405 116.692 272.173 118.252 277.425 118.876 C 279.661 119.214 280.363 119.526 280.363 120.67 C 280.363 121.762 279.505 122.516 277.971 122.516 C 275.761 122.516 275.163 121.424 275.033 120.098 H 269.963 C 270.119 124.128 272.771 126.312 277.971 126.312 Z" stroke-linecap="round"></path>
</g>
</g>
</g>
</svg><style>@media (prefers-color-scheme: light) { :root { filter: none; } }
@media (prefers-color-scheme: dark) { :root { filter: none; } }
</style></svg>