<?xml version="1.0" encoding="UTF-8"?> <svg xmlns="http://www.w3.org/2000/svg" width="201" height="93" viewBox="0 0 201 93" fill="none"> <path d="M80.3112 14.5772C80.0888 14.7115 79.8669 14.8466 79.6456 14.9826C76.7751 16.7458 74.0187 18.695 71.2618 20.6446C69.8191 21.6648 68.3764 22.685 66.9171 23.6788C65.7058 24.5034 64.4666 25.2855 63.2184 26.0733C62.6378 26.4398 62.0552 26.8075 61.4725 27.1813C59.0216 22.3369 54.0463 22.4927 49.3023 24.0904C45.1922 25.9507 48.8708 28.8457 52.2114 30.7572C53.7861 31.6584 53.8439 32.9157 52.9365 34.6336C52.4255 35.599 52.2179 36.7212 52.0093 37.8485C51.8919 38.4828 51.7742 39.1188 51.602 39.7293C51.5124 40.0471 51.4259 40.3676 51.3393 40.6888C50.9662 42.0726 50.5896 43.4691 49.9362 44.7116C49.091 46.3205 48.088 46.5385 46.0574 45.4015C42.9347 43.6546 39.6053 41.4806 37.3478 38.9038C36.6628 38.1205 35.0392 36.7008 34.1963 37.3995C33.4172 38.047 34.1012 40.2578 34.4623 41.4249C34.4908 41.5172 34.5174 41.6029 34.541 41.6809C35.1785 43.7867 35.9328 45.8557 36.6874 47.9256C37.1201 49.1125 37.5529 50.2996 37.9639 51.4941C38.858 54.0954 38.3664 54.6117 35.573 54.269C27.6107 53.2921 21.639 49.5226 18.0849 42.1326C16.5748 39.4289 17.0819 43.7548 17.0819 43.7548C17.8825 49.9498 20.9496 54.536 25.4422 58.0675C27.6241 59.7831 35.0792 64.5184 37.7192 65.8602C38.7601 72.5648 43.0482 77.4581 48.5906 76.5391C55.9568 75.3152 61.3791 70.2817 66.1587 64.7654C70.9383 59.2491 74.955 55.3994 80.84 54.9366C86.3041 54.5068 89.6514 57.4323 91.1526 59.5201C85.5217 78.8642 67.6616 93 46.5 93C20.8188 93 0 72.1812 0 46.5C0 20.8188 20.8188 0 46.5 0C59.8209 0 71.8336 5.60133 80.3112 14.5772Z" fill="#FCF9F3"></path> <path d="M102.794 30H107.474V18.326L114.26 30H119.408V11.41H114.754V21.888L108.8 11.41H102.794V30Z" fill="#FCF9F3"></path> <path d="M121.029 30H125.995L126.983 26.542H133.145L134.133 30H139.775L133.873 11.41H126.983L121.029 30ZM130.077 15.726L132.105 22.876H128.023L130.077 15.726Z" fill="#FCF9F3"></path> <path d="M141.389 30H146.147V18.43L150.645 30H152.413L156.963 18.43V30H162.267V11.41H155.455L151.893 21.316L148.331 11.41H141.389V30Z" fill="#FCF9F3"></path> <path d="M165.475 30H170.857V11.41H165.475V30Z" fill="#FCF9F3"></path> <path d="M173.991 30H182.363C186.965 30 189.123 28.154 189.123 24.826V24.722C189.123 22.148 187.693 20.77 185.405 20.38C187.485 19.834 188.551 18.456 188.551 16.376V16.272C188.551 13.386 186.679 11.41 182.285 11.41H173.991V30ZM179.191 26.438V22.044H181.245C183.117 22.044 183.871 22.772 183.871 24.176V24.28C183.871 25.658 183.091 26.438 181.401 26.438H179.191ZM179.191 18.794V14.946H181.219C182.831 14.946 183.507 15.518 183.507 16.792V16.896C183.507 18.222 182.883 18.794 181.219 18.794H179.191Z" fill="#FCF9F3"></path> <path d="M102.794 54H116.054V49.892H108.098V46.512H114.104V42.716H108.098V39.518H115.638V35.41H102.794V54Z" fill="#FCF9F3"></path> <path d="M118.194 54H122.874V42.326L129.66 54H134.808V35.41H130.154V45.888L124.2 35.41H118.194V54Z" fill="#FCF9F3"></path> <path d="M142.565 54H148.623L154.707 35.41H149.715L145.919 48.462L142.149 35.41H136.403L142.565 54Z" fill="#FCF9F3"></path> <path d="M156.385 54H161.767V35.41H156.385V54Z" fill="#FCF9F3"></path> <path d="M164.902 54H170.206V47.344H171.454L175.224 54H180.84L176.394 46.304C178.344 45.55 179.748 44.068 179.748 41.416V41.312C179.748 37.386 177.044 35.41 172.182 35.41H164.902V54ZM170.206 43.886V39.414H171.948C173.664 39.414 174.6 40.012 174.6 41.52V41.624C174.6 43.132 173.716 43.886 171.922 43.886H170.206Z" fill="#FCF9F3"></path> <path d="M191.123 50.126C188.549 50.126 186.833 48.176 186.833 44.796V44.588C186.833 41.208 188.471 39.31 191.097 39.31C193.723 39.31 195.387 41.26 195.387 44.562V44.77C195.387 48.098 193.749 50.126 191.123 50.126ZM191.019 54.312C197.025 54.312 200.951 50.412 200.951 44.692V44.484C200.951 38.712 196.765 35.15 191.097 35.15C185.533 35.15 181.269 38.946 181.269 44.614V44.822C181.269 50.412 185.013 54.312 191.019 54.312Z" fill="#FCF9F3"></path> <path d="M106.356 78H111.712V63.518H116.522V59.41H101.546V63.518H106.356V78Z" fill="#FCF9F3"></path> <path d="M126.552 74.126C123.978 74.126 122.262 72.176 122.262 68.796V68.588C122.262 65.208 123.9 63.31 126.526 63.31C129.152 63.31 130.816 65.26 130.816 68.562V68.77C130.816 72.098 129.178 74.126 126.552 74.126ZM126.448 78.312C132.454 78.312 136.38 74.412 136.38 68.692V68.484C136.38 62.712 132.194 59.15 126.526 59.15C120.962 59.15 116.698 62.946 116.698 68.614V68.822C116.698 74.412 120.442 78.312 126.448 78.312Z" fill="#FCF9F3"></path> <path d="M146.581 78.312C151.703 78.312 154.875 75.79 154.875 70.382V59.41H149.493V70.148C149.493 72.93 148.791 74.126 146.581 74.126C144.319 74.126 143.669 72.852 143.669 70.226V59.41H138.339V70.46C138.339 75.66 141.329 78.312 146.581 78.312Z" fill="#FCF9F3"></path> <path d="M157.804 78H163.108V71.344H164.356L168.126 78H173.742L169.296 70.304C171.246 69.55 172.65 68.068 172.65 65.416V65.312C172.65 61.386 169.946 59.41 165.084 59.41H157.804V78ZM163.108 67.886V63.414H164.85C166.566 63.414 167.502 64.012 167.502 65.52V65.624C167.502 67.132 166.618 67.886 164.824 67.886H163.108Z" fill="#FCF9F3"></path> <path d="M181.971 78.312C186.755 78.312 189.459 75.53 189.459 72.124C189.459 68.094 187.041 66.872 182.335 66.352C180.021 66.04 179.449 65.572 179.449 64.532C179.449 63.596 180.177 62.946 181.607 62.946C183.063 62.946 183.817 63.622 183.999 64.948H188.939C188.601 61.022 186.079 59.15 181.607 59.15C177.161 59.15 174.405 61.594 174.405 64.948C174.405 68.692 176.173 70.252 181.425 70.876C183.661 71.214 184.363 71.526 184.363 72.67C184.363 73.762 183.505 74.516 181.971 74.516C179.761 74.516 179.163 73.424 179.033 72.098H173.963C174.119 76.128 176.771 78.312 181.971 78.312Z" fill="#FCF9F3"></path> </svg> 